<svg width="700" height="340" fill="none" xmlns="http://www.w3.org/2000/svg"><path d="M350.735 295.185c58.359 0 105.668-47.307 105.668-105.663 0-58.355-47.309-105.662-105.668-105.662-58.359 0-105.668 47.307-105.668 105.662 0 58.356 47.309 105.663 105.668 105.663Z" fill="#fff"/><path fill-rule="evenodd" clip-rule="evenodd" d="M500.164 172.843c-5.728-53.834-39.75-99.226-86.898-121.01h-44.025v36.05c42.224 8.166 75.213 42.198 81.818 84.948h49.105v.012Z" fill="#FFA6B2"/><path fill-rule="evenodd" clip-rule="evenodd" d="M280.53 323.104v-58.625a103.445 103.445 0 0 1-12.538-13.702h-36.171v32.207c13.186 16.56 29.77 30.285 48.709 40.12Z" fill="#B3EDDF"/><path fill-rule="evenodd" clip-rule="evenodd" d="M500.26 173.875h-49.057a103.387 103.387 0 0 1 1.056 14.771c0 15.154-3.29 29.552-9.186 42.497v19.646h44.757c8.467-18.865 13.174-39.772 13.174-61.783.012-5.116-.24-10.159-.744-15.131Z" fill="#FFB985"/><path fill-rule="evenodd" clip-rule="evenodd" d="M474.092 151.828c-12.033 0-21.796 9.751-21.796 21.795v3.075c0 12.032 9.751 21.795 21.796 21.795 12.033 0 21.797-9.751 21.797-21.795v-3.075c0-12.044-9.764-21.795-21.797-21.795Z" fill="#FFCBA9"/><path fill-rule="evenodd" clip-rule="evenodd" d="M494.075 234.374C474.813 295.593 417.59 340 350.002 340c-6.16 0-12.237-.372-18.205-1.081v-49.222c5.8 1.02 11.757 1.549 17.845 1.549 40.243 0 75.069-23.153 91.882-56.872h52.551Z" fill="#68C180"/><path fill-rule="evenodd" clip-rule="evenodd" d="M252.668 228.226a88.047 88.047 0 0 1 4.011 3.926 95.974 95.974 0 0 1-1.741-3.926h-2.27Zm69.905 61.267c0 16.271-3.134 31.822-8.85 46.112a149.93 149.93 0 0 1-39.498-15.971 81.389 81.389 0 0 0-.853-62.348c12.97 14.398 29.951 25.098 49.189 30.357.012.613.012 1.225.012 1.85Z" fill="#2E9C86"/><path fill-rule="evenodd" clip-rule="evenodd" d="M209.376 244.113h34.238v-87.674h-41.095A151.47 151.47 0 0 0 199 188.994c0 19.454 3.675 38.043 10.376 55.119Z" fill="#98E1D0"/><path fill-rule="evenodd" clip-rule="evenodd" d="M207.995 240.45c20.043-14.638 33.049-38.319 33.049-65.038 0-22.563-9.283-42.966-24.246-57.58a151.882 151.882 0 0 1 35.931-44.323 138.172 138.172 0 0 1 29.422 37.85c-21.52 18.806-35.115 46.449-35.115 77.275 0 25.662 9.428 49.126 25.003 67.127a137.955 137.955 0 0 1-34.778 33.672 150.728 150.728 0 0 1-29.266-48.983Z" fill="#56B7B5"/><path fill-rule="evenodd" clip-rule="evenodd" d="M354.878 38.072a164.17 164.17 0 0 0-4.876-.072c-56.046 0-104.971 30.537-131.019 75.881h60.37c18.362-17.268 43.088-27.847 70.289-27.847 1.753 0 3.495.048 5.236.132V38.072Z" fill="#8075B3"/><path fill-rule="evenodd" clip-rule="evenodd" d="M338.401 339.556c.157-17.508 4.732-33.972 12.646-48.322-.468.012-.937.012-1.405.012-11 0-21.604-1.729-31.536-4.936-6.485 14.615-10.424 30.61-11.264 47.434a151.35 151.35 0 0 0 31.559 5.812Zm159.517-119.964a132.878 132.878 0 0 0-47.304-12.525 102.134 102.134 0 0 1-11.204 31.342c.372 0 .732-.012 1.105-.012 17.197 0 33.397 4.251 47.604 11.756a150.28 150.28 0 0 0 9.799-30.561Z" fill="#549458"/><path fill-rule="evenodd" clip-rule="evenodd" d="M499.011 164.329c-4.071-10.039-13.93-17.112-25.423-17.112-10.832 0-20.187 6.28-24.655 15.383a102.795 102.795 0 0 1 3.339 26.046 95.17 95.17 0 0 1-.048 3.206c5.032 6.233 12.729 10.232 21.364 10.232 13.702 0 25.051-10.039 27.105-23.153a157.001 157.001 0 0 0-1.682-14.602Zm-8.25 10.315c0 9.487-7.686 17.172-17.173 17.172-9.487 0-17.173-7.685-17.173-17.172 0-9.486 7.686-17.172 17.173-17.172 9.475-.012 17.173 7.686 17.173 17.172Z" fill="#FF9852"/><path fill-rule="evenodd" clip-rule="evenodd" d="M220.052 112.044c51.627-8.178 96.949-35.305 128.605-74.044h1.357c20.86 0 40.735 4.227 58.809 11.876a265.545 265.545 0 0 1-31.728 39.856 102.835 102.835 0 0 0-27.441-3.71c-47.712 0-87.81 32.555-99.303 76.662a263.386 263.386 0 0 1-50.15 7.277 149.76 149.76 0 0 1 19.851-57.917Z" fill="#825282"/><path fill-rule="evenodd" clip-rule="evenodd" d="M485.14 121.531c-1.032.024-2.065.048-3.098.048-50.402 0-92.758-34.464-104.779-81.117 47.352 8.622 86.994 39.34 107.877 81.069Z" fill="#FF7A7F"/></svg>
